<svg width="51" height="39" viewBox="0 0 51 39" fill="none" xmlns="http://www.w3.org/2000/svg">
<rect x="0.926016" y="0.725089" width="48.5156" height="36.8595" rx="5.09955" stroke="black" stroke-width="1.45701"/>
<path d="M19.9323 21.4057H19.1821C18.7841 21.4057 18.4025 21.2476 18.1211 20.9662C17.8397 20.6848 17.6816 20.3032 17.6816 19.9052V13.1533C17.6816 12.7553 17.8397 12.3737 18.1211 12.0923C18.4025 11.8109 18.7841 11.6528 19.1821 11.6528H25.934C26.332 11.6528 26.7136 11.8109 26.995 12.0923C27.2764 12.3737 27.4345 12.7553 27.4345 13.1533V13.9035M24.4336 16.9043H31.1855C32.0142 16.9043 32.686 17.5761 32.686 18.4048V25.1567C32.686 25.9854 32.0142 26.6572 31.1855 26.6572H24.4336C23.6049 26.6572 22.9332 25.9854 22.9332 25.1567V18.4048C22.9332 17.5761 23.6049 16.9043 24.4336 16.9043Z" stroke="black" stroke-width="1.93707" stroke-linecap="round" stroke-linejoin="round"/>
</svg>
