<svg width="152" height="101" viewBox="0 0 152 101" fill="none" xmlns="http://www.w3.org/2000/svg">
<path d="M141.489 26.4931C144.921 40.4345 117.503 59.1594 80.2837 68.3232C43.0344 77.4853 10.0834 73.6092 6.65124 59.6678C3.22875 45.7534 30.6219 27.0278 67.8666 17.867C105.088 8.71239 138.068 12.5758 141.489 26.4931Z" fill="#FEEB54"/>
<path d="M141.489 26.4931C144.921 40.4345 117.503 59.1594 80.2837 68.3232C43.0344 77.4853 10.0834 73.6092 6.65124 59.6678C3.22875 45.7534 30.6219 27.0278 67.8666 17.867C105.088 8.71239 138.068 12.5758 141.489 26.4931Z" fill="#FEEB54" stroke="black" stroke-width="3.88474" stroke-miterlimit="10"/>
<path d="M78.078 59.366C35.5332 69.8359 16.2844 60.2263 15.6063 57.4654C14.5778 53.2864 31.7106 36.2568 70.0671 26.8178C108.43 17.3822 131.508 24.5203 132.532 28.6931C133.701 33.4239 116.061 50.0223 78.078 59.366Z" fill="#FEEB54"/>
<path d="M78.078 59.366C35.5332 69.8359 16.2844 60.2263 15.6063 57.4654C14.5778 53.2864 31.7106 36.2568 70.0671 26.8178C108.43 17.3822 131.508 24.5203 132.532 28.6931C133.701 33.4239 116.061 50.0223 78.078 59.366Z" fill="#FEEB54" stroke="black" stroke-width="3.88474" stroke-miterlimit="10"/>
<path d="M141.485 26.4931L144.909 40.4069C148.339 54.3466 120.92 73.0766 83.7025 82.23C46.455 91.399 13.4965 87.5224 10.0689 73.5798L6.64705 59.6677C10.0792 73.6091 43.0302 77.4852 80.2795 68.3232C117.499 59.1593 144.917 40.4345 141.485 26.4931Z" fill="#FEEB54"/>
<path d="M141.485 26.4931L144.909 40.4069C148.339 54.3466 120.92 73.0766 83.7025 82.23C46.455 91.399 13.4965 87.5224 10.0689 73.5798L6.64705 59.6677C10.0792 73.6091 43.0302 77.4852 80.2795 68.3232C117.499 59.1593 144.917 40.4345 141.485 26.4931Z" fill="#FEEB54" stroke="black" stroke-width="3.88474" stroke-miterlimit="10"/>
</svg>
