<svg width="29" height="25" viewBox="0 0 29 25" fill="none" xmlns="http://www.w3.org/2000/svg">
<path fill-rule="evenodd" clip-rule="evenodd" d="M22.2888 24.5761C22.6737 24.8487 23.1698 24.9168 23.6121 24.7495C24.0544 24.5809 24.3796 24.2032 24.4776 23.7453C25.5165 18.8632 28.0364 6.50599 28.982 2.06496C29.0537 1.73024 28.9342 1.38237 28.6712 1.15883C28.4082 0.935281 28.0436 0.870729 27.7184 0.991468C22.706 2.84678 7.26938 8.63864 0.959924 10.9733C0.559454 11.1216 0.298849 11.5065 0.311999 11.9285C0.326344 12.3517 0.610858 12.7187 1.02089 12.8418C3.85044 13.6881 7.56465 14.8656 7.56465 14.8656C7.56465 14.8656 9.30042 20.1076 10.2054 22.7734C10.3189 23.1081 10.5807 23.3711 10.9262 23.462C11.2705 23.5517 11.6387 23.4572 11.8957 23.2145C13.3493 21.8422 15.5968 19.7203 15.5968 19.7203C15.5968 19.7203 19.8668 22.8511 22.2888 24.5761ZM9.12708 14.2034L11.1342 20.8237L11.5801 16.6313C11.5801 16.6313 19.3349 9.63683 23.7556 5.65006C23.8847 5.53291 23.9026 5.33686 23.795 5.19939C23.6886 5.06191 23.4926 5.02963 23.3456 5.12288C18.2219 8.39477 9.12708 14.2034 9.12708 14.2034Z" fill="white"/>
</svg>
