<svg width="34" height="25" viewBox="0 0 34 25" fill="none" xmlns="http://www.w3.org/2000/svg">
<path d="M33.0425 3.76196C31.8536 4.24249 30.5759 4.56611 29.2348 4.71198C30.6041 3.96545 31.6557 2.78252 32.1498 1.37282C30.8694 2.06419 29.4503 2.56678 27.9396 2.83769C26.7319 1.66457 25.0071 0.931519 23.1006 0.931519C18.8204 0.931519 15.6752 4.56733 16.6419 8.34166C11.1338 8.09037 6.24902 5.68774 2.9786 2.03599C1.24174 4.74876 2.07786 8.29753 5.02918 10.0946C3.94397 10.0627 2.92071 9.79182 2.02804 9.33949C1.95533 12.1356 4.15671 14.7515 7.34499 15.3338C6.41193 15.5643 5.39001 15.6182 4.35059 15.4368C5.19344 17.8345 7.6412 19.5789 10.5441 19.6279C7.75699 21.6174 4.24557 22.5061 0.72876 22.1286C3.66258 23.8411 7.14842 24.8401 10.8914 24.8401C23.2003 24.8401 30.1544 15.3755 29.7344 6.8866C31.0296 6.03465 32.1538 4.97186 33.0425 3.76196Z" fill="white"/>
</svg>
